<svg width="60" height="60" viewBox="0 0 60 60" fill="none" xmlns="http://www.w3.org/2000/svg">
<path d="M37.625 12.5C40.0668 12.9764 42.311 14.1706 44.0701 15.9298C45.8293 17.689 47.0236 19.9332 47.5 22.375M37.625 2.5C42.6982 3.06359 47.429 5.33544 51.0406 8.94252C54.6522 12.5496 56.93 17.2775 57.5 22.35M55 42.3V49.8C55.0028 50.4963 54.8602 51.1854 54.5813 51.8234C54.3023 52.4613 53.8932 53.034 53.3802 53.5047C52.8671 53.9754 52.2614 54.3337 51.6019 54.5568C50.9423 54.7798 50.2434 54.8627 49.55 54.8C41.8571 53.9641 34.4675 51.3354 27.975 47.125C21.9346 43.2867 16.8133 38.1654 12.975 32.125C8.74993 25.603 6.12059 18.1775 5.29999 10.45C5.23751 9.75867 5.31967 9.0619 5.54124 8.40406C5.7628 7.74622 6.11891 7.14172 6.5869 6.62905C7.05489 6.11638 7.6245 5.70677 8.25946 5.4263C8.89443 5.14584 9.58084 5.00065 10.275 5H17.775C18.9883 4.98806 20.1645 5.4177 21.0844 6.20883C22.0043 6.99997 22.6052 8.09862 22.775 9.3C23.0915 11.7002 23.6786 14.0568 24.525 16.325C24.8613 17.2198 24.9341 18.1923 24.7348 19.1272C24.5354 20.0621 24.0721 20.9203 23.4 21.6L20.225 24.775C23.7839 31.0339 28.9661 36.2161 35.225 39.775L38.4 36.6C39.0797 35.9278 39.9379 35.4646 40.8728 35.2652C41.8077 35.0658 42.7802 35.1386 43.675 35.475C45.9432 36.3214 48.2998 36.9084 50.7 37.225C51.9144 37.3963 53.0235 38.008 53.8163 38.9437C54.6091 39.8795 55.0304 41.0739 55 42.3Z" stroke="#1E1E1E" stroke-width="4" stroke-linecap="round" stroke-linejoin="round"/>
</svg>
